<svg xmlns="http://www.w3.org/2000/svg" width="64" height="64" viewBox="0 0 64 64" version="1.1"><path d="M 25.500 3.959 C 24.400 4.417, 22.151 6.218, 20.501 7.961 C 17.724 10.895, 17.465 11.807, 17.001 20.314 C 16.515 29.223, 16.427 29.500, 14.083 29.500 C 10.833 29.500, 10.242 31.772, 13.293 32.537 C 16.151 33.255, 18 38.237, 18 45.218 C 18 52.822, 24.075 59.664, 31.739 60.692 C 37.434 61.456, 43.313 58.050, 46.046 52.404 C 47.992 48.385, 48.047 47.302, 47.165 30.486 C 46.147 11.055, 45.754 9.840, 39.010 5.250 C 35.587 2.920, 29.413 2.330, 25.500 3.959 M 26 6.752 C 20.092 9.703, 17.625 17.876, 19.625 27.875 C 20.231 30.905, 20.412 31, 25.566 31 C 28.490 31, 31.154 30.559, 31.488 30.020 C 31.847 29.438, 34.555 29.298, 38.155 29.674 L 44.218 30.308 43.859 21.734 C 43.546 14.252, 43.181 12.815, 41 10.451 C 38.545 7.791, 33.309 4.998, 30.782 5.002 C 30.077 5.002, 27.925 5.790, 26 6.752 M 24.200 13.200 C 22.657 14.743, 22.657 18.257, 24.200 19.800 C 25.933 21.533, 28.374 21.278, 30.882 19.103 C 32.135 18.016, 33.909 17.425, 35.035 17.719 C 36.361 18.066, 37 17.732, 37 16.690 C 37 15.841, 36.212 14.958, 35.250 14.728 C 33.583 14.329, 33.583 14.273, 35.250 13.548 C 37.936 12.379, 40 13.662, 40 16.500 C 40 19.526, 37.520 20.806, 34.868 19.149 C 33.755 18.455, 33 18.383, 33 18.972 C 33 20.582, 37.880 21.344, 39.513 19.989 C 40.331 19.310, 41 17.775, 41 16.578 C 41 12.295, 36.620 10.523, 33.571 13.571 C 32.143 15, 31.857 15, 30.429 13.571 C 28.557 11.700, 25.861 11.539, 24.200 13.200 M 24.500 14 C 24.160 14.550, 24.557 15, 25.382 15 C 27.951 15, 28.244 16.972, 25.814 17.908 C 23.772 18.695, 23.706 18.883, 25.250 19.507 C 28.951 21.002, 32.381 17.369, 29.989 14.487 C 28.582 12.791, 25.420 12.511, 24.500 14 M 25.079 47.583 C 25.127 48.748, 25.364 48.985, 25.683 48.188 C 25.972 47.466, 25.936 46.603, 25.604 46.271 C 25.272 45.939, 25.036 46.529, 25.079 47.583 M 27.506 52.006 C 28.504 53.110, 29.538 53.795, 29.803 53.530 C 30.475 52.858, 27.981 50, 26.723 50 C 26.155 50, 26.507 50.903, 27.506 52.006 M 32 54 C 32 54.550, 32.450 55, 33 55 C 33.550 55, 34 54.550, 34 54 C 34 53.450, 33.550 53, 33 53 C 32.450 53, 32 53.450, 32 54" stroke="none" fill="#428969" fill-rule="evenodd"/><path d="M 0 32.014 L 0 64.028 32.250 63.764 L 64.500 63.500 64.764 31.750 L 65.028 0 32.514 0 L 0 0 0 32.014 M 0.446 32.500 C 0.447 50.100, 0.583 57.159, 0.749 48.187 C 0.914 39.215, 0.914 24.815, 0.748 16.187 C 0.581 7.559, 0.446 14.900, 0.446 32.500 M 25.500 3.959 C 24.400 4.417, 22.151 6.218, 20.501 7.961 C 17.724 10.895, 17.465 11.807, 17.001 20.314 C 16.515 29.223, 16.427 29.500, 14.083 29.500 C 10.833 29.500, 10.242 31.772, 13.293 32.537 C 16.151 33.255, 18 38.237, 18 45.218 C 18 52.822, 24.075 59.664, 31.739 60.692 C 37.434 61.456, 43.313 58.050, 46.046 52.404 C 47.992 48.385, 48.047 47.302, 47.165 30.486 C 46.147 11.055, 45.754 9.840, 39.010 5.250 C 35.587 2.920, 29.413 2.330, 25.500 3.959 M 26 6.752 C 20.092 9.703, 17.625 17.876, 19.625 27.875 C 20.231 30.905, 20.412 31, 25.566 31 C 28.490 31, 31.154 30.559, 31.488 30.020 C 31.847 29.438, 34.555 29.298, 38.155 29.674 L 44.218 30.308 43.859 21.734 C 43.546 14.252, 43.181 12.815, 41 10.451 C 38.545 7.791, 33.309 4.998, 30.782 5.002 C 30.077 5.002, 27.925 5.790, 26 6.752 M 24.200 13.200 C 22.657 14.743, 22.657 18.257, 24.200 19.800 C 25.933 21.533, 28.374 21.278, 30.882 19.103 C 32.135 18.016, 33.909 17.425, 35.035 17.719 C 36.361 18.066, 37 17.732, 37 16.690 C 37 15.841, 36.212 14.958, 35.250 14.728 C 33.583 14.329, 33.583 14.273, 35.250 13.548 C 37.936 12.379, 40 13.662, 40 16.500 C 40 19.526, 37.520 20.806, 34.868 19.149 C 33.755 18.455, 33 18.383, 33 18.972 C 33 20.582, 37.880 21.344, 39.513 19.989 C 40.331 19.310, 41 17.775, 41 16.578 C 41 12.295, 36.620 10.523, 33.571 13.571 C 32.143 15, 31.857 15, 30.429 13.571 C 28.557 11.700, 25.861 11.539, 24.200 13.200 M 24.500 14 C 24.160 14.550, 24.557 15, 25.382 15 C 27.951 15, 28.244 16.972, 25.814 17.908 C 23.772 18.695, 23.706 18.883, 25.250 19.507 C 28.951 21.002, 32.381 17.369, 29.989 14.487 C 28.582 12.791, 25.420 12.511, 24.500 14 M 25.079 47.583 C 25.127 48.748, 25.364 48.985, 25.683 48.188 C 25.972 47.466, 25.936 46.603, 25.604 46.271 C 25.272 45.939, 25.036 46.529, 25.079 47.583 M 27.506 52.006 C 28.504 53.110, 29.538 53.795, 29.803 53.530 C 30.475 52.858, 27.981 50, 26.723 50 C 26.155 50, 26.507 50.903, 27.506 52.006 M 32 54 C 32 54.550, 32.450 55, 33 55 C 33.550 55, 34 54.550, 34 54 C 34 53.450, 33.550 53, 33 53 C 32.450 53, 32 53.450, 32 54" stroke="none" fill="#f5f6f6" fill-rule="evenodd"/></svg>