<?xml version="1.0" encoding="UTF-8"?>
<!DOCTYPE svg PUBLIC "-//W3C//DTD SVG 1.1//EN" "http://www.w3.org/Graphics/SVG/1.1/DTD/svg11.dtd">
<svg xmlns="http://www.w3.org/2000/svg" version="1.1" width="389px" height="389px" style="shape-rendering:geometricPrecision; text-rendering:geometricPrecision; image-rendering:optimizeQuality; fill-rule:evenodd; clip-rule:evenodd" xmlns:xlink="http://www.w3.org/1999/xlink">
<g><path style="opacity:0.247" fill="#cad3d2" d="M 177.5,17.5 C 184.989,16.3443 192.655,16.1777 200.5,17C 204.43,17.2415 208.097,18.0749 211.5,19.5C 210.833,19.5 210.167,19.5 209.5,19.5C 199.584,17.8372 189.584,17.1706 179.5,17.5C 178.833,17.5 178.167,17.5 177.5,17.5 Z"/></g>
<g><path style="opacity:1" fill="#6c8480" d="M 209.5,19.5 C 210.167,19.5 210.833,19.5 211.5,19.5C 214.152,19.4095 216.485,20.0762 218.5,21.5C 214.988,22.0545 211.988,21.3878 209.5,19.5 Z"/></g>
<g><path style="opacity:1" fill="#5e7372" d="M 177.5,17.5 C 178.167,17.5 178.833,17.5 179.5,17.5C 176.678,18.5072 173.678,19.3405 170.5,20C 169.069,20.4652 167.903,21.2986 167,22.5C 164.959,21.5769 162.792,21.2436 160.5,21.5C 165.734,18.7762 171.4,17.4429 177.5,17.5 Z"/></g>
<g><path style="opacity:0.992" fill="#798c8a" d="M 160.5,21.5 C 157.66,23.9151 154.327,25.2484 150.5,25.5C 153.34,23.0849 156.673,21.7516 160.5,21.5 Z"/></g>
<g><path style="opacity:1" fill="#6d827f" d="M 218.5,21.5 C 222.297,21.8723 225.63,23.2057 228.5,25.5C 224.269,26.0193 220.936,24.686 218.5,21.5 Z"/></g>
<g><path style="opacity:1" fill="#8d9a99" d="M 234.5,28.5 C 238.683,30.0875 242.35,32.4208 245.5,35.5C 240.874,34.5253 237.207,32.192 234.5,28.5 Z"/></g>
<g><path style="opacity:1" fill="#fcfdfc" d="M 237.5,77.5 C 220.204,69.4463 207.038,73.7796 198,90.5C 194.141,106.948 199.974,118.448 215.5,125C 227.462,127.515 237.129,124.015 244.5,114.5C 245.496,114.414 246.329,114.748 247,115.5C 247.42,138.504 247.92,161.504 248.5,184.5C 244.922,185.589 241.255,185.755 237.5,185C 224.022,181.089 210.522,177.256 197,173.5C 194.299,174.754 192.466,176.754 191.5,179.5C 189.72,180.99 189.054,182.99 189.5,185.5C 182.313,185.175 175.313,185.509 168.5,186.5C 151.763,186.956 135.097,186.456 118.5,185C 117.525,179.259 117.192,173.425 117.5,167.5C 117.294,142.165 116.96,116.831 116.5,91.5C 116.232,89.901 116.566,88.5676 117.5,87.5C 119.411,83.767 120.744,79.767 121.5,75.5C 122.74,71.3494 124.74,67.6827 127.5,64.5C 128.682,62.9005 130.015,62.5672 131.5,63.5C 133.423,60.9103 135.256,58.2436 137,55.5C 139.466,54.8054 141.133,52.8054 142,49.5C 143.645,47.3382 145.812,46.0049 148.5,45.5C 149.386,44.675 149.719,43.675 149.5,42.5C 152.633,38.9336 156.633,36.9336 161.5,36.5C 178.756,33.7938 194.756,36.9605 209.5,46C 221.704,53.7049 231.37,63.8716 238.5,76.5C 238.376,77.1067 238.043,77.44 237.5,77.5 Z"/></g>
<g><path style="opacity:0.588" fill="#a6b6b4" d="M 143.5,29.5 C 136.874,35.4905 130.208,41.4905 123.5,47.5C 125.557,43.933 128.223,40.7663 131.5,38C 134.463,36.0394 137.129,33.706 139.5,31C 140.745,30.2086 142.078,29.7086 143.5,29.5 Z"/></g>
<g><path style="opacity:0.047" fill="#d1d8d7" d="M 249.5,39.5 C 253.167,41.1667 255.833,43.8333 257.5,47.5C 254.5,45.1667 251.833,42.5 249.5,39.5 Z"/></g>
<g><path style="opacity:0.639" fill="#9faeac" d="M 123.5,47.5 C 121.206,51.1274 118.54,54.4607 115.5,57.5C 117.033,53.296 119.7,49.9626 123.5,47.5 Z"/></g>
<g><path style="opacity:0.769" fill="#a5b4b2" d="M 261.5,51.5 C 263.587,52.5846 264.92,54.2512 265.5,56.5C 263.413,55.4154 262.08,53.7488 261.5,51.5 Z"/></g>
<g><path style="opacity:0.702" fill="#adbbbb" d="M 265.5,56.5 C 267.262,57.2623 268.262,58.5956 268.5,60.5C 266.738,59.7377 265.738,58.4044 265.5,56.5 Z"/></g>
<g><path style="opacity:0.341" fill="#c3cbcc" d="M 268.5,60.5 C 269.906,60.9731 270.573,61.9731 270.5,63.5C 269.094,63.0269 268.427,62.0269 268.5,60.5 Z"/></g>
<g><path style="opacity:0.969" fill="#8ca09c" d="M 109.5,68.5 C 109.585,71.6489 108.585,74.3155 106.5,76.5C 106.733,73.4582 107.733,70.7916 109.5,68.5 Z"/></g>
<g><path style="opacity:0.961" fill="#94a6a4" d="M 274.5,71.5 C 276.642,74.8004 277.975,78.467 278.5,82.5C 276.358,79.1996 275.025,75.533 274.5,71.5 Z"/></g>
<g><path style="opacity:0.706" fill="#94a6a2" d="M 106.5,76.5 C 106.59,79.1522 105.924,81.4855 104.5,83.5C 104.41,80.8478 105.076,78.5145 106.5,76.5 Z"/></g>
<g><path style="opacity:1" fill="#1a423d" d="M 179.5,17.5 C 189.584,17.1706 199.584,17.8372 209.5,19.5C 211.988,21.3878 214.988,22.0545 218.5,21.5C 220.936,24.686 224.269,26.0193 228.5,25.5C 230.819,25.9925 232.819,26.9925 234.5,28.5C 237.207,32.192 240.874,34.5253 245.5,35.5C 247.167,36.5 248.5,37.8333 249.5,39.5C 251.833,42.5 254.5,45.1667 257.5,47.5C 259.167,48.5 260.5,49.8333 261.5,51.5C 262.08,53.7488 263.413,55.4154 265.5,56.5C 265.738,58.4044 266.738,59.7377 268.5,60.5C 268.427,62.0269 269.094,63.0269 270.5,63.5C 272.341,65.8485 273.674,68.5152 274.5,71.5C 275.025,75.533 276.358,79.1996 278.5,82.5C 278.41,85.1522 279.076,87.4855 280.5,89.5C 280.5,92.1667 280.5,94.8333 280.5,97.5C 280.549,105.248 279.882,112.915 278.5,120.5C 279.901,127.306 280.901,134.139 281.5,141C 280.892,142.231 280.559,143.564 280.5,145C 281.834,161.004 283.167,177.004 284.5,193C 284.44,196.255 283.106,197.088 280.5,195.5C 268.75,193.97 257.084,191.136 245.5,187C 253.935,185.926 262.269,185.093 270.5,184.5C 269.584,154.838 268.75,125.171 268,95.5C 260.161,65.9868 241.995,45.4868 213.5,34C 198.222,29.9354 182.888,29.602 167.5,33C 165.273,33.941 163.273,35.1077 161.5,36.5C 156.633,36.9336 152.633,38.9336 149.5,42.5C 139.833,47.5 132.5,54.8333 127.5,64.5C 124.74,67.6827 122.74,71.3494 121.5,75.5C 119.194,79.0845 117.861,83.0845 117.5,87.5C 116.566,88.5676 116.232,89.901 116.5,91.5C 115.596,92.209 115.263,93.209 115.5,94.5C 114.834,102.493 114.5,110.66 114.5,119C 114.287,130.378 114.954,141.545 116.5,152.5C 116.5,157.5 116.5,162.5 116.5,167.5C 116.5,173.167 116.5,178.833 116.5,184.5C 112.239,184.102 108.239,183.102 104.5,181.5C 102.046,148.797 102.046,116.131 104.5,83.5C 105.924,81.4855 106.59,79.1522 106.5,76.5C 108.585,74.3155 109.585,71.6489 109.5,68.5C 110.742,64.3447 112.742,60.678 115.5,57.5C 118.54,54.4607 121.206,51.1274 123.5,47.5C 130.208,41.4905 136.874,35.4905 143.5,29.5C 145.336,27.412 147.669,26.0787 150.5,25.5C 154.327,25.2484 157.66,23.9151 160.5,21.5C 162.792,21.2436 164.959,21.5769 167,22.5C 167.903,21.2986 169.069,20.4652 170.5,20C 173.678,19.3405 176.678,18.5072 179.5,17.5 Z"/></g>
<g><path style="opacity:1" fill="#bbcfce" d="M 270.5,184.5 C 263.167,184.5 255.833,184.5 248.5,184.5C 247.92,161.504 247.42,138.504 247,115.5C 246.329,114.748 245.496,114.414 244.5,114.5C 251.783,100.174 249.45,87.8402 237.5,77.5C 238.043,77.44 238.376,77.1067 238.5,76.5C 231.37,63.8716 221.704,53.7049 209.5,46C 194.756,36.9605 178.756,33.7938 161.5,36.5C 163.273,35.1077 165.273,33.941 167.5,33C 182.888,29.602 198.222,29.9354 213.5,34C 241.995,45.4868 260.161,65.9868 268,95.5C 268.75,125.171 269.584,154.838 270.5,184.5 Z"/></g>
<g><path style="opacity:1" fill="#aabdbb" d="M 121.5,75.5 C 120.744,79.767 119.411,83.767 117.5,87.5C 117.861,83.0845 119.194,79.0845 121.5,75.5 Z"/></g>
<g><path style="opacity:1" fill="#d4e1df" d="M 149.5,42.5 C 149.719,43.675 149.386,44.675 148.5,45.5C 145.812,46.0049 143.645,47.3382 142,49.5C 141.133,52.8054 139.466,54.8054 137,55.5C 135.256,58.2436 133.423,60.9103 131.5,63.5C 130.015,62.5672 128.682,62.9005 127.5,64.5C 132.5,54.8333 139.833,47.5 149.5,42.5 Z"/></g>
<g><path style="opacity:1" fill="#131414" d="M 237.5,77.5 C 249.45,87.8402 251.783,100.174 244.5,114.5C 237.129,124.015 227.462,127.515 215.5,125C 199.974,118.448 194.141,106.948 198,90.5C 207.038,73.7796 220.204,69.4463 237.5,77.5 Z"/></g>
<g><path style="opacity:1" fill="#f4f7f8" d="M 217.5,76.5 C 237.203,76.3662 246.37,86.0329 245,105.5C 240.1,118.06 230.933,123.56 217.5,122C 204.391,117.542 198.558,108.376 200,94.5C 202.683,85.318 208.517,79.318 217.5,76.5 Z"/></g>
<g><path style="opacity:0.596" fill="#9eafae" d="M 278.5,82.5 C 280.163,84.4385 280.829,86.7718 280.5,89.5C 279.076,87.4855 278.41,85.1522 278.5,82.5 Z"/></g>
<g><path style="opacity:1" fill="#0d0d0d" d="M 209.5,89.5 C 220.324,88.156 224.824,92.8227 223,103.5C 219.702,108.22 215.202,109.72 209.5,108C 201.565,101.838 201.565,95.6709 209.5,89.5 Z"/></g>
<g><path style="opacity:1" fill="#dedede" d="M 207.5,93.5 C 211.419,92.7464 212.753,94.0797 211.5,97.5C 208.07,98.7422 206.737,97.4089 207.5,93.5 Z"/></g>
<g><path style="opacity:0.192" fill="#b7c7c6" d="M 280.5,89.5 C 281.972,93.9192 282.638,98.5859 282.5,103.5C 281.833,101.5 281.167,99.5 280.5,97.5C 280.5,94.8333 280.5,92.1667 280.5,89.5 Z"/></g>
<g><path style="opacity:1" fill="#b2c5c3" d="M 116.5,91.5 C 116.96,116.831 117.294,142.165 117.5,167.5C 117.167,167.5 116.833,167.5 116.5,167.5C 116.5,162.5 116.5,157.5 116.5,152.5C 116.005,133.17 115.672,113.837 115.5,94.5C 115.263,93.209 115.596,92.209 116.5,91.5 Z"/></g>
<g><path style="opacity:0.566" fill="#9cadab" d="M 104.5,83.5 C 102.046,116.131 102.046,148.797 104.5,181.5C 102.597,181.204 100.93,180.537 99.5,179.5C 100.873,179.657 102.207,179.49 103.5,179C 101.618,150.587 101.118,122.087 102,93.5C 102.311,89.9101 103.144,86.5767 104.5,83.5 Z"/></g>
<g><path style="opacity:1" fill="#151616" d="M 159.5,73.5 C 178.347,72.3638 189.014,81.0304 191.5,99.5C 191.108,112.459 184.775,120.959 172.5,125C 149.042,126.875 138.209,116.042 140,92.5C 143.748,83.2508 150.248,76.9175 159.5,73.5 Z"/></g>
<g><path style="opacity:1" fill="#f4f7f8" d="M 157.5,77.5 C 178.675,75.1344 188.842,84.4677 188,105.5C 182.145,120.012 171.645,125.178 156.5,121C 145.738,114.976 141.238,105.809 143,93.5C 145.626,86.0458 150.46,80.7125 157.5,77.5 Z"/></g>
<g><path style="opacity:1" fill="#0b0c0c" d="M 152.5,89.5 C 162.492,88.3271 166.992,92.6604 166,102.5C 160.82,110.737 154.82,111.404 148,104.5C 145.064,98.0578 146.564,93.0578 152.5,89.5 Z"/></g>
<g><path style="opacity:1" fill="#e7e8e8" d="M 150.5,93.5 C 154.161,93.3501 155.161,94.8501 153.5,98C 149.707,98.4866 148.707,96.9866 150.5,93.5 Z"/></g>
<g><path style="opacity:1" fill="#43615d" d="M 115.5,94.5 C 115.672,113.837 116.005,133.17 116.5,152.5C 114.954,141.545 114.287,130.378 114.5,119C 114.5,110.66 114.834,102.493 115.5,94.5 Z"/></g>
<g><path style="opacity:1" fill="#a4a4a4" d="M 85.5,175.5 C 83.4534,175.489 81.4534,175.156 79.5,174.5C 77.5749,174.59 76.4083,175.59 76,177.5C 75.6924,176.692 75.1924,176.025 74.5,175.5C 73.016,176.467 72.016,177.8 71.5,179.5C 71.4242,182.973 70.7576,186.306 69.5,189.5C 69.3666,192.587 70.6999,194.587 73.5,195.5C 71.2776,195.822 69.4443,195.155 68,193.5C 67.2732,188.314 67.9399,183.314 70,178.5C 73.9372,171.587 79.1039,170.587 85.5,175.5 Z"/></g>
<g><path style="opacity:1" fill="#656666" d="M 248.5,184.5 C 255.833,184.5 263.167,184.5 270.5,184.5C 262.269,185.093 253.935,185.926 245.5,187C 257.084,191.136 268.75,193.97 280.5,195.5C 283.024,198.239 284.024,201.572 283.5,205.5C 260.469,200.326 237.636,194.326 215,187.5C 213.97,187.836 213.47,188.503 213.5,189.5C 213.53,190.497 213.03,191.164 212,191.5C 209.276,190.313 206.443,189.647 203.5,189.5C 200.714,187.603 197.714,185.937 194.5,184.5C 195.167,184.167 195.833,183.833 196.5,183.5C 201.686,185.624 207.02,186.791 212.5,187C 207.155,185.331 201.822,183.665 196.5,182C 195.354,181.355 194.354,180.522 193.5,179.5C 192.83,181.291 192.163,182.958 191.5,184.5C 191.5,182.833 191.5,181.167 191.5,179.5C 192.466,176.754 194.299,174.754 197,173.5C 210.522,177.256 224.022,181.089 237.5,185C 241.255,185.755 244.922,185.589 248.5,184.5 Z"/></g>
<g><path style="opacity:1" fill="#adb8b6" d="M 191.5,179.5 C 191.5,181.167 191.5,182.833 191.5,184.5C 191.167,185.167 190.833,185.833 190.5,186.5C 190.167,186.5 189.833,186.5 189.5,186.5C 182.5,186.5 175.5,186.5 168.5,186.5C 175.313,185.509 182.313,185.175 189.5,185.5C 189.054,182.99 189.72,180.99 191.5,179.5 Z"/></g>
<g><path style="opacity:1" fill="#1b413b" d="M 168.5,186.5 C 175.5,186.5 182.5,186.5 189.5,186.5C 188.351,189.041 188.351,191.541 189.5,194C 194.453,195.368 199.12,197.201 203.5,199.5C 195.744,200.027 188.244,200.027 181,199.5C 174.793,200.231 168.626,201.231 162.5,202.5C 162.5,200.833 162.5,199.167 162.5,197.5C 151.145,194.44 139.811,191.273 128.5,188C 142.006,187.831 155.34,187.331 168.5,186.5 Z"/></g>
<g><path style="opacity:1" fill="#373737" d="M 203.5,189.5 C 206.146,191.253 209.146,192.253 212.5,192.5C 212.5,193.5 212.5,194.5 212.5,195.5C 213.791,195.263 214.791,195.596 215.5,196.5C 209.96,196.282 204.627,195.115 199.5,193C 198.228,191.693 197.228,190.193 196.5,188.5C 193.128,191.495 191.128,190.828 190.5,186.5C 190.833,185.833 191.167,185.167 191.5,184.5C 192.163,182.958 192.83,181.291 193.5,179.5C 194.354,180.522 195.354,181.355 196.5,182C 201.822,183.665 207.155,185.331 212.5,187C 207.02,186.791 201.686,185.624 196.5,183.5C 195.833,183.833 195.167,184.167 194.5,184.5C 197.714,185.937 200.714,187.603 203.5,189.5 Z"/></g>
<g><path style="opacity:1" fill="#676868" d="M 116.5,167.5 C 116.833,167.5 117.167,167.5 117.5,167.5C 117.192,173.425 117.525,179.259 118.5,185C 135.097,186.456 151.763,186.956 168.5,186.5C 155.34,187.331 142.006,187.831 128.5,188C 139.811,191.273 151.145,194.44 162.5,197.5C 162.5,199.167 162.5,200.833 162.5,202.5C 162.5,202.833 162.5,203.167 162.5,203.5C 162.5,203.833 162.5,204.167 162.5,204.5C 161.833,204.5 161.5,204.833 161.5,205.5C 132.014,198.504 102.847,190.504 74,181.5C 72.9889,180.944 72.1556,180.278 71.5,179.5C 72.016,177.8 73.016,176.467 74.5,175.5C 75.1924,176.025 75.6924,176.692 76,177.5C 76.4083,175.59 77.5749,174.59 79.5,174.5C 81.4534,175.156 83.4534,175.489 85.5,175.5C 87.5145,176.924 89.8478,177.59 92.5,177.5C 94.5145,178.924 96.8478,179.59 99.5,179.5C 100.93,180.537 102.597,181.204 104.5,181.5C 108.239,183.102 112.239,184.102 116.5,184.5C 116.5,178.833 116.5,173.167 116.5,167.5 Z"/></g>
<g><path style="opacity:0.016" fill="#dbdbda" d="M 92.5,177.5 C 95.1522,177.41 97.4855,178.076 99.5,179.5C 96.8478,179.59 94.5145,178.924 92.5,177.5 Z"/></g>
<g><path style="opacity:0.004" fill="#dfdfdf" d="M 85.5,175.5 C 88.1522,175.41 90.4855,176.076 92.5,177.5C 89.8478,177.59 87.5145,176.924 85.5,175.5 Z"/></g>
<g><path style="opacity:1" fill="#5c5d5d" d="M 215.5,190.5 C 220.6,191.025 225.6,192.025 230.5,193.5C 230.629,195.216 230.962,196.883 231.5,198.5C 226.774,197.652 222.108,196.485 217.5,195C 215.893,193.951 215.227,192.451 215.5,190.5 Z"/></g>
<g><path style="opacity:1" fill="#424242" d="M 283.5,205.5 C 282.79,207.746 282.29,210.08 282,212.5C 281.617,213.056 281.117,213.389 280.5,213.5C 279.341,211.623 277.674,211.123 275.5,212C 273.981,213.351 272.648,214.851 271.5,216.5C 271.635,215.019 271.301,213.353 270.5,211.5C 272.833,210.167 275.167,208.833 277.5,207.5C 271.886,205.017 266.053,203.017 260,201.5C 257.923,202.017 255.923,202.684 254,203.5C 253.309,201.109 252.309,201.109 251,203.5C 250.342,201.892 250.842,200.725 252.5,200C 248.01,198.583 243.51,197.083 239,195.5C 238.333,196.833 238.333,198.167 239,199.5C 240.545,198.179 241.711,198.512 242.5,200.5C 241.757,201.182 241.091,201.849 240.5,202.5C 236.934,202.208 233.934,200.874 231.5,198.5C 230.962,196.883 230.629,195.216 230.5,193.5C 225.6,192.025 220.6,191.025 215.5,190.5C 215.591,188.302 214.925,187.969 213.5,189.5C 213.47,188.503 213.97,187.836 215,187.5C 237.636,194.326 260.469,200.326 283.5,205.5 Z"/></g>
<g><path style="opacity:0.994" fill="#858585" d="M 91.5,201.5 C 85.099,200.407 79.099,198.407 73.5,195.5C 75.4672,195.739 77.3005,195.406 79,194.5C 83.5641,196.197 87.7308,198.53 91.5,201.5 Z"/></g>
<g><path style="opacity:1" fill="#5f5f5f" d="M 113.5,200.5 C 108.164,197.91 102.497,196.077 96.5,195C 95.244,194.583 94.5774,193.75 94.5,192.5C 95.5523,191.47 96.8857,190.803 98.5,190.5C 102.526,191.521 106.526,192.521 110.5,193.5C 110.513,196.863 112.179,199.03 115.5,200C 114.906,200.464 114.239,200.631 113.5,200.5 Z"/></g>
<g><path style="opacity:1" fill="#3b3b3b" d="M 71.5,179.5 C 72.1556,180.278 72.9889,180.944 74,181.5C 102.847,190.504 132.014,198.504 161.5,205.5C 161.97,211.194 159.303,213.694 153.5,213C 152.364,214.145 151.364,215.312 150.5,216.5C 150.338,214.473 150.505,212.473 151,210.5C 153.761,209.204 156.595,208.037 159.5,207C 152.585,205.397 145.752,203.563 139,201.5C 136.146,202.114 133.313,202.781 130.5,203.5C 129.261,201.993 129.595,200.826 131.5,200C 126.991,198.038 122.325,197.038 117.5,197C 118.579,197.956 119.745,198.789 121,199.5C 121.47,200.577 121.303,201.577 120.5,202.5C 117.99,202.073 115.657,201.407 113.5,200.5C 114.239,200.631 114.906,200.464 115.5,200C 112.179,199.03 110.513,196.863 110.5,193.5C 106.526,192.521 102.526,191.521 98.5,190.5C 96.8857,190.803 95.5523,191.47 94.5,192.5C 94.7148,190.821 94.0481,189.821 92.5,189.5C 86.6466,186.445 80.3132,184.445 73.5,183.5C 73.3601,185.124 74.0267,186.29 75.5,187C 80.7559,188.058 85.7559,189.558 90.5,191.5C 91.2341,192.708 91.5674,194.041 91.5,195.5C 92.791,195.263 93.791,195.596 94.5,196.5C 89.3408,196.206 84.3408,195.039 79.5,193C 77.6797,192.021 76.513,190.521 76,188.5C 75.4806,189.516 74.6473,190.182 73.5,190.5C 72.1508,190.154 70.8175,189.821 69.5,189.5C 70.7576,186.306 71.4242,182.973 71.5,179.5 Z"/></g>
<g><path style="opacity:1" fill="#5a5a5a" d="M 92.5,189.5 C 92.5,190.833 91.8333,191.5 90.5,191.5C 85.7559,189.558 80.7559,188.058 75.5,187C 74.0267,186.29 73.3601,185.124 73.5,183.5C 80.3132,184.445 86.6466,186.445 92.5,189.5 Z"/></g>
<g><path style="opacity:1" fill="#515754" d="M 189.5,186.5 C 189.833,186.5 190.167,186.5 190.5,186.5C 191.128,190.828 193.128,191.495 196.5,188.5C 197.228,190.193 198.228,191.693 199.5,193C 204.627,195.115 209.96,196.282 215.5,196.5C 217.451,197.282 218.951,198.616 220,200.5C 225.732,199.659 231.232,200.659 236.5,203.5C 236.316,205.415 236.65,207.415 237.5,209.5C 232.998,207.555 228.332,206.221 223.5,205.5C 221.142,205.747 219.142,205.081 217.5,203.5C 217.167,203.5 216.833,203.5 216.5,203.5C 216.5,202.833 216.167,202.5 215.5,202.5C 211.841,200.658 207.841,199.658 203.5,199.5C 199.12,197.201 194.453,195.368 189.5,194C 188.351,191.541 188.351,189.041 189.5,186.5 Z"/></g>
<g><path style="opacity:1" fill="#19543f" d="M 203.5,199.5 C 207.841,199.658 211.841,200.658 215.5,202.5C 197.836,202.948 180.169,203.282 162.5,203.5C 162.5,203.167 162.5,202.833 162.5,202.5C 168.626,201.231 174.793,200.231 181,199.5C 188.244,200.027 195.744,200.027 203.5,199.5 Z"/></g>
<g><path style="opacity:0.804" fill="#b4b4b4" d="M 91.5,201.5 C 93.1439,201.286 94.6439,201.62 96,202.5C 97.2525,205.014 97.7525,207.68 97.5,210.5C 96.8333,211.167 96.1667,211.833 95.5,212.5C 95.3184,210.409 95.6518,208.409 96.5,206.5C 95.7551,203.754 94.0884,202.088 91.5,201.5 Z"/></g>
<g><path style="opacity:1" fill="#484b4a" d="M 104.5,200.5 C 108.27,201.041 111.937,202.041 115.5,203.5C 115.579,205.128 115.912,206.795 116.5,208.5C 112.851,207.594 109.351,206.26 106,204.5C 105.601,204.728 105.435,205.062 105.5,205.5C 105.167,205.5 104.833,205.5 104.5,205.5C 103.909,204.849 103.243,204.182 102.5,203.5C 103.193,202.482 103.859,201.482 104.5,200.5 Z"/></g>
<g><path style="opacity:1" fill="#555455" d="M 94.5,196.5 C 96.7454,197.096 98.7454,198.096 100.5,199.5C 100.965,203.792 100.132,207.792 98,211.5C 97.6012,211.272 97.4346,210.938 97.5,210.5C 97.7525,207.68 97.2525,205.014 96,202.5C 94.6439,201.62 93.1439,201.286 91.5,201.5C 87.7308,198.53 83.5641,196.197 79,194.5C 77.3005,195.406 75.4672,195.739 73.5,195.5C 70.6999,194.587 69.3666,192.587 69.5,189.5C 70.8175,189.821 72.1508,190.154 73.5,190.5C 74.6473,190.182 75.4806,189.516 76,188.5C 76.513,190.521 77.6797,192.021 79.5,193C 84.3408,195.039 89.3408,196.206 94.5,196.5 Z"/></g>
<g><path style="opacity:1" fill="#1a1a1a" d="M 92.5,189.5 C 94.0481,189.821 94.7148,190.821 94.5,192.5C 94.5774,193.75 95.244,194.583 96.5,195C 102.497,196.077 108.164,197.91 113.5,200.5C 115.657,201.407 117.99,202.073 120.5,202.5C 123.803,203.682 126.636,205.682 129,208.5C 129.494,210.134 129.66,211.801 129.5,213.5C 131.167,213.5 132.833,213.5 134.5,213.5C 134.5,214.833 134.5,216.167 134.5,217.5C 133.5,217.5 132.5,217.5 131.5,217.5C 131.5,219.167 131.5,220.833 131.5,222.5C 131.665,225.518 131.498,228.518 131,231.5C 130.617,230.944 130.117,230.611 129.5,230.5C 128.035,224.879 126.535,219.212 125,213.5C 124.167,214.5 123.333,215.5 122.5,216.5C 122.167,216 121.833,215.5 121.5,215C 124.451,212.03 124.118,209.53 120.5,207.5C 119.476,208.853 118.143,209.52 116.5,209.5C 116.5,209.167 116.5,208.833 116.5,208.5C 115.912,206.795 115.579,205.128 115.5,203.5C 111.937,202.041 108.27,201.041 104.5,200.5C 103.041,200.567 101.708,200.234 100.5,199.5C 98.7454,198.096 96.7454,197.096 94.5,196.5C 93.791,195.596 92.791,195.263 91.5,195.5C 91.5674,194.041 91.2341,192.708 90.5,191.5C 91.8333,191.5 92.5,190.833 92.5,189.5 Z"/></g>
<g><path style="opacity:1" fill="#53d28e" d="M 215.5,217.5 C 215.833,218.5 216.5,219.167 217.5,219.5C 217.421,220.93 217.754,222.264 218.5,223.5C 217.675,224.386 216.675,224.719 215.5,224.5C 215.223,229.233 215.557,233.9 216.5,238.5C 219.447,239.321 222.447,239.821 225.5,240C 226.77,240.9 227.77,242.066 228.5,243.5C 230.116,242.885 231.449,241.885 232.5,240.5C 234.49,241.463 234.823,242.796 233.5,244.5C 232.328,244.919 231.328,245.585 230.5,246.5C 231.686,248.508 233.02,250.341 234.5,252C 234.241,253.261 233.574,254.261 232.5,255C 232.833,255.333 233.167,255.667 233.5,256C 237.441,255.733 241.441,255.566 245.5,255.5C 245.5,256.833 245.5,258.167 245.5,259.5C 243.5,259.5 241.5,259.5 239.5,259.5C 239.5,260.5 239.5,261.5 239.5,262.5C 237.305,261.392 235.305,261.559 233.5,263C 234.022,263.561 234.355,264.228 234.5,265C 231.783,269.806 230.949,274.973 232,280.5C 232.619,277.968 233.619,275.635 235,273.5C 235.49,274.793 235.657,276.127 235.5,277.5C 237.262,277.643 238.929,277.309 240.5,276.5C 241.731,277.651 241.731,278.817 240.5,280C 244.227,282.551 244.393,285.385 241,288.5C 240.333,287.167 239.667,287.167 239,288.5C 238.374,286.009 237.541,286.009 236.5,288.5C 236.057,294.021 235.057,299.354 233.5,304.5C 235.332,305.248 236.999,306.248 238.5,307.5C 240.382,305.307 240.882,305.973 240,309.5C 238.701,310.98 237.034,311.646 235,311.5C 232.112,310.613 229.445,309.279 227,307.5C 226.167,307.667 225.333,307.833 224.5,308C 223.565,310.381 223.232,312.881 223.5,315.5C 219.437,314.891 216.27,316.225 214,319.5C 211.873,318.603 211.373,317.269 212.5,315.5C 213.863,316.879 214.863,316.713 215.5,315C 213.26,311.307 211.426,307.474 210,303.5C 209.586,303.957 209.086,304.291 208.5,304.5C 207.676,307.785 207.176,311.118 207,314.5C 206.439,313.978 205.772,313.645 205,313.5C 202.727,314.852 200.894,316.519 199.5,318.5C 197.234,320.217 194.734,321.551 192,322.5C 191.626,321.584 191.126,320.75 190.5,320C 186.545,318.187 182.545,316.687 178.5,315.5C 178.631,314.761 178.464,314.094 178,313.5C 176.601,312.773 175.101,312.273 173.5,312C 170.368,307.289 166.701,303.122 162.5,299.5C 157.285,299.468 154.952,302.135 155.5,307.5C 156.021,309.924 156.688,312.257 157.5,314.5C 158.552,314.351 159.552,314.517 160.5,315C 164.541,317.332 165.375,320.498 163,324.5C 159.92,323.801 157.586,322.134 156,319.5C 155.667,319.833 155.333,320.167 155,320.5C 154.349,318.765 154.515,317.098 155.5,315.5C 154.311,314.571 152.978,314.238 151.5,314.5C 151.988,317.711 151.321,320.544 149.5,323C 151.029,324.862 152.863,326.362 155,327.5C 156.261,327.241 157.261,326.574 158,325.5C 157.865,327.425 157.698,329.425 157.5,331.5C 150.647,330.48 144.814,327.48 140,322.5C 139.517,321.552 139.351,320.552 139.5,319.5C 137.784,319.371 136.117,319.038 134.5,318.5C 133.737,316.632 132.737,314.965 131.5,313.5C 131.664,310.813 131.497,308.146 131,305.5C 126.21,295.815 123.877,285.482 124,274.5C 123.239,267.469 123.405,260.469 124.5,253.5C 123.861,248.324 123.194,243.158 122.5,238C 122.974,236.392 123.641,236.226 124.5,237.5C 125.244,240.443 125.744,243.443 126,246.5C 126.383,247.056 126.883,247.389 127.5,247.5C 127.534,251.63 128.201,255.63 129.5,259.5C 136.837,261.67 144.17,261.837 151.5,260C 154.044,257.343 156.711,254.843 159.5,252.5C 160.407,249.579 160.74,246.579 160.5,243.5C 160.101,238.139 158.601,233.139 156,228.5C 155.417,224.168 154.917,219.835 154.5,215.5C 161.795,216.291 165.128,212.958 164.5,205.5C 181.507,205.437 198.507,205.104 215.5,204.5C 215.703,206.39 215.037,207.89 213.5,209C 214.128,211.939 214.795,214.772 215.5,217.5 Z"/></g>
<g><path style="opacity:0.218" fill="#bdc5c5" d="M 285.5,175.5 C 286.675,188.319 287.341,201.319 287.5,214.5C 285.924,201.7 285.257,188.7 285.5,175.5 Z"/></g>
<g><path style="opacity:0.255" fill="#c4cfcc" d="M 104.5,205.5 C 104.833,205.5 105.167,205.5 105.5,205.5C 105.5,208.167 105.5,210.833 105.5,213.5C 104.508,213.672 103.842,213.338 103.5,212.5C 104.793,210.636 104.793,208.636 103.5,206.5C 102.571,207.689 102.238,209.022 102.5,210.5C 101.549,209.081 101.216,207.415 101.5,205.5C 102.5,205.5 103.5,205.5 104.5,205.5 Z"/></g>
<g><path style="opacity:1" fill="#5ec490" d="M 215.5,202.5 C 216.167,202.5 216.5,202.833 216.5,203.5C 216.002,208.152 215.669,212.819 215.5,217.5C 214.795,214.772 214.128,211.939 213.5,209C 215.037,207.89 215.703,206.39 215.5,204.5C 198.507,205.104 181.507,205.437 164.5,205.5C 165.128,212.958 161.795,216.291 154.5,215.5C 154.917,219.835 155.417,224.168 156,228.5C 158.601,233.139 160.101,238.139 160.5,243.5C 156.622,236.024 153.955,228.024 152.5,219.5C 152.326,217.307 152.993,215.473 154.5,214C 161.481,214.557 164.148,211.39 162.5,204.5C 162.5,204.167 162.5,203.833 162.5,203.5C 180.169,203.282 197.836,202.948 215.5,202.5 Z"/></g>
<g><path style="opacity:1" fill="#161516" d="M 215.5,190.5 C 215.227,192.451 215.893,193.951 217.5,195C 222.108,196.485 226.774,197.652 231.5,198.5C 233.934,200.874 236.934,202.208 240.5,202.5C 243.489,204.003 246.156,206.003 248.5,208.5C 249.049,212.591 250.049,216.591 251.5,220.5C 251.36,222.03 250.693,223.03 249.5,223.5C 247.21,222.114 246.543,220.281 247.5,218C 247.108,213.037 245.775,212.537 243.5,216.5C 242.511,214.412 242.844,212.412 244.5,210.5C 241.625,205.214 239.292,204.881 237.5,209.5C 236.65,207.415 236.316,205.415 236.5,203.5C 231.232,200.659 225.732,199.659 220,200.5C 218.951,198.616 217.451,197.282 215.5,196.5C 214.791,195.596 213.791,195.263 212.5,195.5C 212.5,194.5 212.5,193.5 212.5,192.5C 209.146,192.253 206.146,191.253 203.5,189.5C 206.443,189.647 209.276,190.313 212,191.5C 213.03,191.164 213.53,190.497 213.5,189.5C 214.925,187.969 215.591,188.302 215.5,190.5 Z"/></g>
<g><path style="opacity:1" fill="#21403b" d="M 116.5,208.5 C 116.5,208.833 116.5,209.167 116.5,209.5C 116.829,212.228 116.163,214.562 114.5,216.5C 111.298,215.869 108.298,214.869 105.5,213.5C 105.5,210.833 105.5,208.167 105.5,205.5C 105.435,205.062 105.601,204.728 106,204.5C 109.351,206.26 112.851,207.594 116.5,208.5 Z"/></g>
<g><path style="opacity:1" fill="#606c65" d="M 217.5,203.5 C 219.142,205.081 221.142,205.747 223.5,205.5C 222.47,208.104 222.47,210.771 223.5,213.5C 228.033,214.984 232.699,215.65 237.5,215.5C 237.577,216.75 238.244,217.583 239.5,218C 236.478,218.098 233.811,218.932 231.5,220.5C 226.678,218.712 221.678,217.712 216.5,217.5C 217.127,212.859 217.46,208.193 217.5,203.5 Z"/></g>
<g><path style="opacity:1" fill="#58c68f" d="M 223.5,205.5 C 228.332,206.221 232.998,207.555 237.5,209.5C 237.5,211.5 237.5,213.5 237.5,215.5C 232.699,215.65 228.033,214.984 223.5,213.5C 222.47,210.771 222.47,208.104 223.5,205.5 Z"/></g>
<g><path style="opacity:1" fill="#87b49a" d="M 216.5,203.5 C 216.833,203.5 217.167,203.5 217.5,203.5C 217.46,208.193 217.127,212.859 216.5,217.5C 221.678,217.712 226.678,218.712 231.5,220.5C 235.25,221.614 238.917,222.614 242.5,223.5C 237.985,223.728 233.652,223.062 229.5,221.5C 225.5,220.833 221.5,220.167 217.5,219.5C 216.5,219.167 215.833,218.5 215.5,217.5C 215.669,212.819 216.002,208.152 216.5,203.5 Z"/></g>
<g><path style="opacity:0.573" fill="#c6c6c6" d="M 95.5,212.5 C 95.5,214.167 95.5,215.833 95.5,217.5C 99.6891,217.428 103.689,218.261 107.5,220C 106.244,220.417 105.577,221.25 105.5,222.5C 101.97,220.857 98.3036,219.357 94.5,218C 93.2613,215.882 93.5946,214.049 95.5,212.5 Z"/></g>
<g><path style="opacity:1" fill="#6a6f6e" d="M 100.5,199.5 C 101.708,200.234 103.041,200.567 104.5,200.5C 103.859,201.482 103.193,202.482 102.5,203.5C 103.243,204.182 103.909,204.849 104.5,205.5C 103.5,205.5 102.5,205.5 101.5,205.5C 101.216,207.415 101.549,209.081 102.5,210.5C 102.833,211.167 103.167,211.833 103.5,212.5C 103.842,213.338 104.508,213.672 105.5,213.5C 108.298,214.869 111.298,215.869 114.5,216.5C 114.083,217.124 113.416,217.457 112.5,217.5C 109.577,216.24 106.577,215.74 103.5,216C 110.398,217.458 116.731,219.958 122.5,223.5C 121.833,223.5 121.167,223.5 120.5,223.5C 119.5,223.5 118.5,223.5 117.5,223.5C 113.993,223.693 110.66,223.027 107.5,221.5C 106.52,224.086 106.187,226.753 106.5,229.5C 106.167,229.5 105.833,229.5 105.5,229.5C 105.5,227.167 105.5,224.833 105.5,222.5C 105.577,221.25 106.244,220.417 107.5,220C 103.689,218.261 99.6891,217.428 95.5,217.5C 95.5,215.833 95.5,214.167 95.5,212.5C 96.1667,211.833 96.8333,211.167 97.5,210.5C 97.4346,210.938 97.6012,211.272 98,211.5C 100.132,207.792 100.965,203.792 100.5,199.5 Z"/></g>
<g><path style="opacity:1" fill="#5c5c5c" d="M 150.5,216.5 C 150.833,220.5 151.167,224.5 151.5,228.5C 150.234,227.91 148.901,227.41 147.5,227C 146.88,224.788 145.713,222.954 144,221.5C 142.56,222.148 141.06,222.481 139.5,222.5C 139.229,224.821 139.896,226.821 141.5,228.5C 138.854,232.449 136.687,232.115 135,227.5C 135.158,231.459 135.325,235.459 135.5,239.5C 134.167,233.833 132.833,228.167 131.5,222.5C 131.5,220.833 131.5,219.167 131.5,217.5C 132.5,217.5 133.5,217.5 134.5,217.5C 134.5,216.167 134.5,214.833 134.5,213.5C 132.833,213.5 131.167,213.5 129.5,213.5C 129.66,211.801 129.494,210.134 129,208.5C 126.636,205.682 123.803,203.682 120.5,202.5C 121.303,201.577 121.47,200.577 121,199.5C 119.745,198.789 118.579,197.956 117.5,197C 122.325,197.038 126.991,198.038 131.5,200C 129.595,200.826 129.261,201.993 130.5,203.5C 133.313,202.781 136.146,202.114 139,201.5C 145.752,203.563 152.585,205.397 159.5,207C 156.595,208.037 153.761,209.204 151,210.5C 150.505,212.473 150.338,214.473 150.5,216.5 Z"/></g>
<g><path style="opacity:1" fill="#6d6d6d" d="M 276.5,251.5 C 270.099,251.395 263.766,250.728 257.5,249.5C 257.5,247.5 257.5,245.5 257.5,243.5C 256.888,239.837 256.721,236.17 257,232.5C 258.016,231.366 258.683,231.699 259,233.5C 259.674,231.483 260.841,229.817 262.5,228.5C 259.942,226.88 259.942,225.38 262.5,224C 261.549,223.282 261.383,222.449 262,221.5C 268.29,224.173 270.457,228.506 268.5,234.5C 269.85,235.95 271.516,236.617 273.5,236.5C 273.5,238.5 273.5,240.5 273.5,242.5C 263.741,243.475 263.408,244.808 272.5,246.5C 274.1,246.449 275.6,246.116 277,245.5C 277.789,247.712 277.622,249.712 276.5,251.5 Z"/></g>
<g><path style="opacity:1" fill="#6a6a6a" d="M 151.5,228.5 C 151.34,230.199 151.506,231.866 152,233.5C 152.893,232.289 153.726,232.289 154.5,233.5C 157.241,239.54 158.575,245.874 158.5,252.5C 157.5,252.5 156.5,252.5 155.5,252.5C 148.892,251.226 142.226,250.06 135.5,249C 136.818,245.731 136.818,242.565 135.5,239.5C 135.325,235.459 135.158,231.459 135,227.5C 136.687,232.115 138.854,232.449 141.5,228.5C 139.896,226.821 139.229,224.821 139.5,222.5C 141.06,222.481 142.56,222.148 144,221.5C 145.713,222.954 146.88,224.788 147.5,227C 148.901,227.41 150.234,227.91 151.5,228.5 Z"/></g>
<g><path style="opacity:1" fill="#484a49" d="M 249.5,223.5 C 249.534,227.604 250.201,231.604 251.5,235.5C 251.379,236.894 251.046,238.228 250.5,239.5C 253.893,243.63 254.226,247.963 251.5,252.5C 251.957,253.298 252.624,253.631 253.5,253.5C 253.158,254.338 252.492,254.672 251.5,254.5C 249.833,247.799 248.166,241.133 246.5,234.5C 245.683,232.031 245.183,229.365 245,226.5C 244.623,225.058 243.79,224.058 242.5,223.5C 238.917,222.614 235.25,221.614 231.5,220.5C 233.811,218.932 236.478,218.098 239.5,218C 238.244,217.583 237.577,216.75 237.5,215.5C 237.5,213.5 237.5,211.5 237.5,209.5C 239.292,204.881 241.625,205.214 244.5,210.5C 242.844,212.412 242.511,214.412 243.5,216.5C 245.775,212.537 247.108,213.037 247.5,218C 246.543,220.281 247.21,222.114 249.5,223.5 Z"/></g>
<g><path style="opacity:1" fill="#557160" d="M 162.5,204.5 C 164.148,211.39 161.481,214.557 154.5,214C 152.993,215.473 152.326,217.307 152.5,219.5C 153.955,228.024 156.622,236.024 160.5,243.5C 160.74,246.579 160.407,249.579 159.5,252.5C 156.711,254.843 154.044,257.343 151.5,260C 144.17,261.837 136.837,261.67 129.5,259.5C 128.201,255.63 127.534,251.63 127.5,247.5C 128.165,249.698 128.832,252.031 129.5,254.5C 130.417,255.127 131.417,255.461 132.5,255.5C 132.5,256.5 132.5,257.5 132.5,258.5C 138.52,258.761 144.52,258.928 150.5,259C 152.192,257.693 153.525,256.193 154.5,254.5C 154.5,254.167 154.5,253.833 154.5,253.5C 155.167,253.5 155.5,253.167 155.5,252.5C 156.5,252.5 157.5,252.5 158.5,252.5C 158.575,245.874 157.241,239.54 154.5,233.5C 153.726,232.289 152.893,232.289 152,233.5C 151.506,231.866 151.34,230.199 151.5,228.5C 151.167,224.5 150.833,220.5 150.5,216.5C 151.364,215.312 152.364,214.145 153.5,213C 159.303,213.694 161.97,211.194 161.5,205.5C 161.5,204.833 161.833,204.5 162.5,204.5 Z"/></g>
<g><path style="opacity:1" fill="#595b5b" d="M 280.5,213.5 C 276.276,213.441 273.942,215.441 273.5,219.5C 275.181,228.41 277.681,237.077 281,245.5C 281.497,247.81 281.663,250.143 281.5,252.5C 279.833,252.5 278.167,252.5 276.5,252.5C 276.5,252.167 276.5,251.833 276.5,251.5C 277.622,249.712 277.789,247.712 277,245.5C 275.6,246.116 274.1,246.449 272.5,246.5C 263.408,244.808 263.741,243.475 273.5,242.5C 273.5,240.5 273.5,238.5 273.5,236.5C 271.516,236.617 269.85,235.95 268.5,234.5C 270.457,228.506 268.29,224.173 262,221.5C 261.383,222.449 261.549,223.282 262.5,224C 259.942,225.38 259.942,226.88 262.5,228.5C 260.841,229.817 259.674,231.483 259,233.5C 258.683,231.699 258.016,231.366 257,232.5C 256.721,236.17 256.888,239.837 257.5,243.5C 256.259,238.899 254.926,234.233 253.5,229.5C 252.509,225.555 252.176,221.555 252.5,217.5C 253.5,217.5 254.5,217.5 255.5,217.5C 255.5,216.167 255.5,214.833 255.5,213.5C 253.833,213.5 252.167,213.5 250.5,213.5C 250.88,211.302 250.213,209.635 248.5,208.5C 246.156,206.003 243.489,204.003 240.5,202.5C 241.091,201.849 241.757,201.182 242.5,200.5C 241.711,198.512 240.545,198.179 239,199.5C 238.333,198.167 238.333,196.833 239,195.5C 243.51,197.083 248.01,198.583 252.5,200C 250.842,200.725 250.342,201.892 251,203.5C 252.309,201.109 253.309,201.109 254,203.5C 255.923,202.684 257.923,202.017 260,201.5C 266.053,203.017 271.886,205.017 277.5,207.5C 275.167,208.833 272.833,210.167 270.5,211.5C 271.301,213.353 271.635,215.019 271.5,216.5C 272.648,214.851 273.981,213.351 275.5,212C 277.674,211.123 279.341,211.623 280.5,213.5 Z"/></g>
<g><path style="opacity:1" fill="#4e5250" d="M 129.5,230.5 C 129.872,233.617 129.872,236.617 129.5,239.5C 132.402,243.478 133.068,247.811 131.5,252.5C 133.019,251.983 134.352,252.65 135.5,254.5C 136.386,253.675 136.719,252.675 136.5,251.5C 142.544,251.839 148.544,252.506 154.5,253.5C 154.5,253.833 154.5,254.167 154.5,254.5C 149.45,254.124 144.45,253.458 139.5,252.5C 139.167,252.833 138.833,253.167 138.5,253.5C 139.376,254.251 140.376,254.751 141.5,255C 138.204,255.325 135.204,255.492 132.5,255.5C 131.417,255.461 130.417,255.127 129.5,254.5C 128.832,252.031 128.165,249.698 127.5,247.5C 126.898,243.13 126.231,238.797 125.5,234.5C 125.665,231.482 125.498,228.482 125,225.5C 124.292,224.619 123.458,223.953 122.5,223.5C 116.731,219.958 110.398,217.458 103.5,216C 106.577,215.74 109.577,216.24 112.5,217.5C 113.416,217.457 114.083,217.124 114.5,216.5C 116.163,214.562 116.829,212.228 116.5,209.5C 118.143,209.52 119.476,208.853 120.5,207.5C 124.118,209.53 124.451,212.03 121.5,215C 121.833,215.5 122.167,216 122.5,216.5C 123.333,215.5 124.167,214.5 125,213.5C 126.535,219.212 128.035,224.879 129.5,230.5 Z"/></g>
<g><path style="opacity:1" fill="#2c2a2b" d="M 131.5,222.5 C 132.833,228.167 134.167,233.833 135.5,239.5C 136.818,242.565 136.818,245.731 135.5,249C 142.226,250.06 148.892,251.226 155.5,252.5C 155.5,253.167 155.167,253.5 154.5,253.5C 148.544,252.506 142.544,251.839 136.5,251.5C 136.719,252.675 136.386,253.675 135.5,254.5C 134.352,252.65 133.019,251.983 131.5,252.5C 133.068,247.811 132.402,243.478 129.5,239.5C 129.872,236.617 129.872,233.617 129.5,230.5C 130.117,230.611 130.617,230.944 131,231.5C 131.498,228.518 131.665,225.518 131.5,222.5 Z"/></g>
<g><path style="opacity:1" fill="#262727" d="M 248.5,208.5 C 250.213,209.635 250.88,211.302 250.5,213.5C 252.167,213.5 253.833,213.5 255.5,213.5C 255.5,214.833 255.5,216.167 255.5,217.5C 254.5,217.5 253.5,217.5 252.5,217.5C 252.176,221.555 252.509,225.555 253.5,229.5C 254.926,234.233 256.259,238.899 257.5,243.5C 257.5,245.5 257.5,247.5 257.5,249.5C 263.766,250.728 270.099,251.395 276.5,251.5C 276.5,251.833 276.5,252.167 276.5,252.5C 276.918,253.222 277.584,253.722 278.5,254C 277.906,254.464 277.239,254.631 276.5,254.5C 270.337,252.667 264.004,251.667 257.5,251.5C 257.367,254.896 256.367,255.229 254.5,252.5C 253.893,252.624 253.56,252.957 253.5,253.5C 252.624,253.631 251.957,253.298 251.5,252.5C 254.226,247.963 253.893,243.63 250.5,239.5C 251.046,238.228 251.379,236.894 251.5,235.5C 250.201,231.604 249.534,227.604 249.5,223.5C 250.693,223.03 251.36,222.03 251.5,220.5C 250.049,216.591 249.049,212.591 248.5,208.5 Z"/></g>
<g><path style="opacity:0.431" fill="#b6c5c4" d="M 105.5,229.5 C 105.833,229.5 106.167,229.5 106.5,229.5C 107.211,243.822 107.544,258.156 107.5,272.5C 106.403,258.343 105.736,244.009 105.5,229.5 Z"/></g>
<g><path style="opacity:1" fill="#2d4a48" d="M 280.5,97.5 C 281.167,99.5 281.833,101.5 282.5,103.5C 284.19,127.459 285.19,151.459 285.5,175.5C 285.257,188.7 285.924,201.7 287.5,214.5C 288.415,223.46 288.748,232.46 288.5,241.5C 288.745,261.518 288.412,281.518 287.5,301.5C 287.167,301.5 286.833,301.5 286.5,301.5C 285.708,296.479 285.708,291.646 286.5,287C 286.045,284.688 285.045,282.688 283.5,281C 285.498,279.586 286.498,277.586 286.5,275C 285.874,272.185 285.874,269.518 286.5,267C 286.046,264.283 284.712,263.45 282.5,264.5C 281.928,262.083 280.928,259.916 279.5,258C 281.524,255.176 283.691,255.342 286,258.5C 285.575,252.867 285.575,247.201 286,241.5C 284.691,239.109 283.691,239.109 283,241.5C 282.667,245.5 282.333,249.5 282,253.5C 280.772,256.233 278.939,256.9 276.5,255.5C 276.5,255.167 276.5,254.833 276.5,254.5C 277.239,254.631 277.906,254.464 278.5,254C 277.584,253.722 276.918,253.222 276.5,252.5C 278.167,252.5 279.833,252.5 281.5,252.5C 281.663,250.143 281.497,247.81 281,245.5C 277.681,237.077 275.181,228.41 273.5,219.5C 273.942,215.441 276.276,213.441 280.5,213.5C 281.117,213.389 281.617,213.056 282,212.5C 282.29,210.08 282.79,207.746 283.5,205.5C 284.024,201.572 283.024,198.239 280.5,195.5C 283.106,197.088 284.44,196.255 284.5,193C 283.167,177.004 281.834,161.004 280.5,145C 280.559,143.564 280.892,142.231 281.5,141C 280.901,134.139 279.901,127.306 278.5,120.5C 279.882,112.915 280.549,105.248 280.5,97.5 Z"/></g>
<g><path style="opacity:1" fill="#5ec08f" d="M 125.5,234.5 C 126.231,238.797 126.898,243.13 127.5,247.5C 126.883,247.389 126.383,247.056 126,246.5C 125.744,243.443 125.244,240.443 124.5,237.5C 123.641,236.226 122.974,236.392 122.5,238C 123.194,243.158 123.861,248.324 124.5,253.5C 123.405,260.469 123.239,267.469 124,274.5C 123.877,285.482 126.21,295.815 131,305.5C 131.497,308.146 131.664,310.813 131.5,313.5C 130.685,312.571 129.852,311.571 129,310.5C 127.583,305.352 125.916,300.352 124,295.5C 122.957,292.243 122.457,288.91 122.5,285.5C 122.316,265.159 122.15,244.826 122,224.5C 122.667,225.167 123.333,225.833 124,226.5C 124.183,229.365 124.683,232.031 125.5,234.5 Z"/></g>
<g><path style="opacity:1" fill="#628575" d="M 246.5,234.5 C 248.166,241.133 249.833,247.799 251.5,254.5C 252.067,256.03 252.733,257.53 253.5,259C 257.5,259.5 261.5,260 265.5,260.5C 267.362,258.528 270.362,257.528 274.5,257.5C 274.5,258.167 274.5,258.833 274.5,259.5C 267.288,261.742 259.955,262.075 252.5,260.5C 251.243,258.578 250.077,256.578 249,254.5C 248.165,247.823 247.332,241.157 246.5,234.5 Z"/></g>
<g><path style="opacity:1" fill="#53d190" d="M 217.5,219.5 C 221.5,220.167 225.5,220.833 229.5,221.5C 229.804,222.15 230.137,222.817 230.5,223.5C 234.713,224.195 238.879,224.861 243,225.5C 244.868,239.308 247.534,252.974 251,266.5C 252.502,276.75 251.336,286.583 247.5,296C 247.645,296.772 247.978,297.439 248.5,298C 245.773,304.047 242.773,309.88 239.5,315.5C 236.402,315.413 236.068,315.913 238.5,317C 235.176,318.118 233.176,320.285 232.5,323.5C 229.675,324.143 227.175,325.477 225,327.5C 222.684,327.066 220.684,326.066 219,324.5C 218.411,326.863 216.911,327.863 214.5,327.5C 214.5,326.167 214.5,324.833 214.5,323.5C 211.402,323.587 211.068,323.087 213.5,322C 211.699,321.683 211.366,321.016 212.5,320C 208.792,319.468 205.292,319.635 202,320.5C 201.005,319.934 200.172,319.267 199.5,318.5C 200.894,316.519 202.727,314.852 205,313.5C 205.772,313.645 206.439,313.978 207,314.5C 207.176,311.118 207.676,307.785 208.5,304.5C 209.086,304.291 209.586,303.957 210,303.5C 211.426,307.474 213.26,311.307 215.5,315C 214.863,316.713 213.863,316.879 212.5,315.5C 211.373,317.269 211.873,318.603 214,319.5C 216.27,316.225 219.437,314.891 223.5,315.5C 223.232,312.881 223.565,310.381 224.5,308C 225.333,307.833 226.167,307.667 227,307.5C 229.445,309.279 232.112,310.613 235,311.5C 237.034,311.646 238.701,310.98 240,309.5C 240.882,305.973 240.382,305.307 238.5,307.5C 236.999,306.248 235.332,305.248 233.5,304.5C 235.057,299.354 236.057,294.021 236.5,288.5C 237.541,286.009 238.374,286.009 239,288.5C 239.667,287.167 240.333,287.167 241,288.5C 244.393,285.385 244.227,282.551 240.5,280C 241.731,278.817 241.731,277.651 240.5,276.5C 238.929,277.309 237.262,277.643 235.5,277.5C 235.657,276.127 235.49,274.793 235,273.5C 233.619,275.635 232.619,277.968 232,280.5C 230.949,274.973 231.783,269.806 234.5,265C 234.355,264.228 234.022,263.561 233.5,263C 235.305,261.559 237.305,261.392 239.5,262.5C 239.5,261.5 239.5,260.5 239.5,259.5C 241.5,259.5 243.5,259.5 245.5,259.5C 245.5,258.167 245.5,256.833 245.5,255.5C 241.441,255.566 237.441,255.733 233.5,256C 233.167,255.667 232.833,255.333 232.5,255C 233.574,254.261 234.241,253.261 234.5,252C 233.02,250.341 231.686,248.508 230.5,246.5C 231.328,245.585 232.328,244.919 233.5,244.5C 234.823,242.796 234.49,241.463 232.5,240.5C 231.449,241.885 230.116,242.885 228.5,243.5C 227.77,242.066 226.77,240.9 225.5,240C 222.447,239.821 219.447,239.321 216.5,238.5C 215.557,233.9 215.223,229.233 215.5,224.5C 216.675,224.719 217.675,224.386 218.5,223.5C 217.754,222.264 217.421,220.93 217.5,219.5 Z"/></g>
<g><path style="opacity:1" fill="#40936d" d="M 120.5,223.5 C 121.167,223.5 121.833,223.5 122.5,223.5C 123.458,223.953 124.292,224.619 125,225.5C 125.498,228.482 125.665,231.482 125.5,234.5C 124.683,232.031 124.183,229.365 124,226.5C 123.333,225.833 122.667,225.167 122,224.5C 122.15,244.826 122.316,265.159 122.5,285.5C 121.13,265.015 120.464,244.348 120.5,223.5 Z"/></g>
<g><path style="opacity:1" fill="#0e4b37" d="M 117.5,223.5 C 118.5,223.5 119.5,223.5 120.5,223.5C 120.464,244.348 121.13,265.015 122.5,285.5C 122.457,288.91 122.957,292.243 124,295.5C 125.916,300.352 127.583,305.352 129,310.5C 129.852,311.571 130.685,312.571 131.5,313.5C 132.737,314.965 133.737,316.632 134.5,318.5C 134.5,318.833 134.5,319.167 134.5,319.5C 130.471,319.943 128.471,318.109 128.5,314C 124.511,311.717 122.011,312.55 121,316.5C 120.833,315.667 120.667,314.833 120.5,314C 121.888,311.573 122.555,308.906 122.5,306C 121.174,295.127 119.508,284.293 117.5,273.5C 118.611,272.389 119.278,271.055 119.5,269.5C 118.726,261.195 118.226,252.861 118,244.5C 117.13,243.892 116.63,243.059 116.5,242C 118.943,236.776 118.943,231.443 116.5,226C 116.743,225.098 117.077,224.265 117.5,223.5 Z"/></g>
<g><path style="opacity:0.045" fill="#cbd2d1" d="M 288.5,241.5 C 289.662,259.329 289.829,277.329 289,295.5C 288.809,297.708 288.309,299.708 287.5,301.5C 288.412,281.518 288.745,261.518 288.5,241.5 Z"/></g>
<g><path style="opacity:0.082" fill="#bec9c8" d="M 109.5,292.5 C 110.657,295.273 111.324,298.273 111.5,301.5C 109.882,298.829 109.215,295.829 109.5,292.5 Z"/></g>
<g><path style="opacity:0.325" fill="#b1c5c1" d="M 112.5,305.5 C 113.931,306.78 114.598,308.447 114.5,310.5C 113.069,309.22 112.402,307.553 112.5,305.5 Z"/></g>
<g><path style="opacity:0.412" fill="#b6c4c3" d="M 286.5,301.5 C 286.833,301.5 287.167,301.5 287.5,301.5C 287.101,305.116 286.101,308.45 284.5,311.5C 284.851,308.097 285.518,304.763 286.5,301.5 Z"/></g>
<g><path style="opacity:0.38" fill="#b2bfbe" d="M 115.5,312.5 C 117.293,314.426 118.293,316.759 118.5,319.5C 116.707,317.574 115.707,315.241 115.5,312.5 Z"/></g>
<g><path style="opacity:0.216" fill="#bfc8c8" d="M 283.5,313.5 C 283.206,316.754 281.873,319.421 279.5,321.5C 280.326,318.515 281.659,315.849 283.5,313.5 Z"/></g>
<g><path style="opacity:0.635" fill="#9daba8" d="M 118.5,319.5 C 120.741,320.3 121.741,321.966 121.5,324.5C 120.11,323.101 119.11,321.434 118.5,319.5 Z"/></g>
<g><path style="opacity:1" fill="#647977" d="M 279.5,321.5 C 278.101,326.634 275.435,330.967 271.5,334.5C 271.941,330.668 273.275,327.168 275.5,324C 277.12,323.721 278.453,322.888 279.5,321.5 Z"/></g>
<g><path style="opacity:0.247" fill="#bec7c6" d="M 121.5,324.5 C 122.906,324.973 123.573,325.973 123.5,327.5C 122.094,327.027 121.427,326.027 121.5,324.5 Z"/></g>
<g><path style="opacity:0.278" fill="#b9c6c4" d="M 123.5,327.5 C 124.906,327.973 125.573,328.973 125.5,330.5C 124.094,330.027 123.427,329.027 123.5,327.5 Z"/></g>
<g><path style="opacity:1" fill="#18423c" d="M 117.5,223.5 C 117.077,224.265 116.743,225.098 116.5,226C 118.943,231.443 118.943,236.776 116.5,242C 116.63,243.059 117.13,243.892 118,244.5C 118.226,252.861 118.726,261.195 119.5,269.5C 119.278,271.055 118.611,272.389 117.5,273.5C 119.508,284.293 121.174,295.127 122.5,306C 122.555,308.906 121.888,311.573 120.5,314C 120.667,314.833 120.833,315.667 121,316.5C 122.011,312.55 124.511,311.717 128.5,314C 128.471,318.109 130.471,319.943 134.5,319.5C 134.892,321.179 135.392,322.846 136,324.5C 139.544,326.039 141.544,328.706 142,332.5C 143.571,334.923 145.737,336.256 148.5,336.5C 148.281,337.675 148.614,338.675 149.5,339.5C 155.583,342.863 161.25,346.696 166.5,351C 189.265,358.281 211.932,358.281 234.5,351C 238.589,349.079 241.923,346.246 244.5,342.5C 245.167,341.833 245.833,341.167 246.5,340.5C 246.833,340.5 247.167,340.5 247.5,340.5C 251.25,337.263 255.416,334.597 260,332.5C 264.258,324.421 269.091,316.755 274.5,309.5C 275.029,306.743 276.029,304.243 277.5,302C 277.167,301 276.833,300 276.5,299C 276.922,294.676 277.922,290.509 279.5,286.5C 277.202,282.412 276.869,278.078 278.5,273.5C 278.215,267.95 277.215,262.617 275.5,257.5C 275.833,256.833 276.167,256.167 276.5,255.5C 278.939,256.9 280.772,256.233 282,253.5C 282.333,249.5 282.667,245.5 283,241.5C 283.691,239.109 284.691,239.109 286,241.5C 285.575,247.201 285.575,252.867 286,258.5C 283.691,255.342 281.524,255.176 279.5,258C 280.928,259.916 281.928,262.083 282.5,264.5C 284.712,263.45 286.046,264.283 286.5,267C 285.874,269.518 285.874,272.185 286.5,275C 286.498,277.586 285.498,279.586 283.5,281C 285.045,282.688 286.045,284.688 286.5,287C 285.708,291.646 285.708,296.479 286.5,301.5C 285.518,304.763 284.851,308.097 284.5,311.5C 284.672,312.492 284.338,313.158 283.5,313.5C 281.659,315.849 280.326,318.515 279.5,321.5C 278.453,322.888 277.12,323.721 275.5,324C 273.275,327.168 271.941,330.668 271.5,334.5C 271.5,335.167 271.167,335.5 270.5,335.5C 269.5,335.5 268.5,335.5 267.5,335.5C 267.5,336.5 267.5,337.5 267.5,338.5C 262.677,338.327 260.677,340.661 261.5,345.5C 259.306,346.773 256.306,347.94 252.5,349C 251.62,350.356 251.286,351.856 251.5,353.5C 248.115,353.025 245.782,354.358 244.5,357.5C 242.167,358.167 239.833,358.833 237.5,359.5C 236.614,360.325 236.281,361.325 236.5,362.5C 235.22,363.931 233.553,364.598 231.5,364.5C 227.838,364.723 224.505,365.723 221.5,367.5C 219.735,368.461 217.735,368.795 215.5,368.5C 201.69,369.111 188.023,368.111 174.5,365.5C 172.898,363.926 170.898,363.259 168.5,363.5C 166.571,360.858 163.905,359.191 160.5,358.5C 159.452,355.165 157.118,353.665 153.5,354C 152.333,352.833 151.167,351.667 150,350.5C 148.586,351.413 147.086,351.413 145.5,350.5C 141.564,348.234 138.231,345.234 135.5,341.5C 134.032,338.722 133.199,335.722 133,332.5C 132.751,333.624 132.251,334.624 131.5,335.5C 130.148,334.482 129.148,333.149 128.5,331.5C 127.583,330.873 126.583,330.539 125.5,330.5C 125.573,328.973 124.906,327.973 123.5,327.5C 123.573,325.973 122.906,324.973 121.5,324.5C 121.741,321.966 120.741,320.3 118.5,319.5C 118.293,316.759 117.293,314.426 115.5,312.5C 114.662,312.158 114.328,311.492 114.5,310.5C 114.598,308.447 113.931,306.78 112.5,305.5C 111.566,304.432 111.232,303.099 111.5,301.5C 111.324,298.273 110.657,295.273 109.5,292.5C 107.961,286.063 107.294,279.396 107.5,272.5C 107.544,258.156 107.211,243.822 106.5,229.5C 106.187,226.753 106.52,224.086 107.5,221.5C 110.66,223.027 113.993,223.693 117.5,223.5 Z"/></g>
<g><path style="opacity:1" fill="#0e4a3a" d="M 274.5,257.5 C 274.833,257.5 275.167,257.5 275.5,257.5C 277.215,262.617 278.215,267.95 278.5,273.5C 276.869,278.078 277.202,282.412 279.5,286.5C 277.922,290.509 276.922,294.676 276.5,299C 276.833,300 277.167,301 277.5,302C 276.029,304.243 275.029,306.743 274.5,309.5C 269.091,316.755 264.258,324.421 260,332.5C 255.416,334.597 251.25,337.263 247.5,340.5C 257.533,331.427 265.366,320.761 271,308.5C 275.411,292.952 276.577,277.286 274.5,261.5C 274.5,260.833 274.5,260.167 274.5,259.5C 274.5,258.833 274.5,258.167 274.5,257.5 Z"/></g>
<g><path style="opacity:1" fill="#278c66" d="M 274.5,259.5 C 274.5,260.167 274.5,260.833 274.5,261.5C 275.361,274.499 273.861,287.166 270,299.5C 266.07,300.969 265.903,302.136 269.5,303C 268.553,306.672 266.719,309.838 264,312.5C 263.716,318.067 261.549,322.734 257.5,326.5C 254.737,327.104 252.403,328.438 250.5,330.5C 249.608,334.063 248.275,337.396 246.5,340.5C 245.833,341.167 245.167,341.833 244.5,342.5C 220.322,357.39 194.989,359.39 168.5,348.5C 166.205,345.779 163.205,344.279 159.5,344C 158.619,343.292 157.953,342.458 157.5,341.5C 184.235,349.519 208.568,345.019 230.5,328C 250.217,309.665 257.55,287.165 252.5,260.5C 259.955,262.075 267.288,261.742 274.5,259.5 Z"/></g>
<g><path style="opacity:1" fill="#72d09f" d="M 150.5,280.5 C 153.711,280.012 156.544,280.679 159,282.5C 159.667,285.833 159.667,289.167 159,292.5C 156.42,296.1 153.42,296.434 150,293.5C 149.232,289.08 149.398,284.747 150.5,280.5 Z"/></g>
<g><path style="opacity:1" fill="#d9faea" d="M 152.5,282.5 C 154.451,282.227 155.951,282.893 157,284.5C 157.777,287.429 157.61,290.263 156.5,293C 154.888,293.72 153.388,293.554 152,292.5C 151.253,289.076 151.42,285.743 152.5,282.5 Z"/></g>
<g><path style="opacity:1" fill="#676969" d="M 276.5,254.5 C 276.5,254.833 276.5,255.167 276.5,255.5C 276.167,256.167 275.833,256.833 275.5,257.5C 275.167,257.5 274.833,257.5 274.5,257.5C 270.362,257.528 267.362,258.528 265.5,260.5C 261.5,260 257.5,259.5 253.5,259C 252.733,257.53 252.067,256.03 251.5,254.5C 252.492,254.672 253.158,254.338 253.5,253.5C 253.56,252.957 253.893,252.624 254.5,252.5C 256.367,255.229 257.367,254.896 257.5,251.5C 264.004,251.667 270.337,252.667 276.5,254.5 Z"/></g>
<g><path style="opacity:1" fill="#757575" d="M 154.5,254.5 C 153.525,256.193 152.192,257.693 150.5,259C 144.52,258.928 138.52,258.761 132.5,258.5C 132.5,257.5 132.5,256.5 132.5,255.5C 135.204,255.492 138.204,255.325 141.5,255C 140.376,254.751 139.376,254.251 138.5,253.5C 138.833,253.167 139.167,252.833 139.5,252.5C 144.45,253.458 149.45,254.124 154.5,254.5 Z"/></g>
<g><path style="opacity:1" fill="#2d8567" d="M 274.5,261.5 C 276.577,277.286 275.411,292.952 271,308.5C 265.366,320.761 257.533,331.427 247.5,340.5C 247.167,340.5 246.833,340.5 246.5,340.5C 248.275,337.396 249.608,334.063 250.5,330.5C 252.403,328.438 254.737,327.104 257.5,326.5C 261.549,322.734 263.716,318.067 264,312.5C 266.719,309.838 268.553,306.672 269.5,303C 265.903,302.136 266.07,300.969 270,299.5C 273.861,287.166 275.361,274.499 274.5,261.5 Z"/></g>
<g><path style="opacity:1" fill="#55cc8f" d="M 229.5,221.5 C 233.652,223.062 237.985,223.728 242.5,223.5C 243.79,224.058 244.623,225.058 245,226.5C 245.183,229.365 245.683,232.031 246.5,234.5C 247.332,241.157 248.165,247.823 249,254.5C 250.077,256.578 251.243,258.578 252.5,260.5C 257.55,287.165 250.217,309.665 230.5,328C 208.568,345.019 184.235,349.519 157.5,341.5C 154.717,339.933 152.051,338.1 149.5,336C 144.634,330.305 139.634,324.805 134.5,319.5C 134.5,319.167 134.5,318.833 134.5,318.5C 136.117,319.038 137.784,319.371 139.5,319.5C 139.351,320.552 139.517,321.552 140,322.5C 144.814,327.48 150.647,330.48 157.5,331.5C 157.698,329.425 157.865,327.425 158,325.5C 157.261,326.574 156.261,327.241 155,327.5C 152.863,326.362 151.029,324.862 149.5,323C 151.321,320.544 151.988,317.711 151.5,314.5C 152.978,314.238 154.311,314.571 155.5,315.5C 154.515,317.098 154.349,318.765 155,320.5C 155.333,320.167 155.667,319.833 156,319.5C 157.586,322.134 159.92,323.801 163,324.5C 165.375,320.498 164.541,317.332 160.5,315C 159.552,314.517 158.552,314.351 157.5,314.5C 156.688,312.257 156.021,309.924 155.5,307.5C 154.952,302.135 157.285,299.468 162.5,299.5C 160.468,300.836 158.634,302.503 157,304.5C 156.161,307.14 156.661,309.473 158.5,311.5C 163.857,316.736 169.524,321.57 175.5,326C 178.039,326.796 180.372,326.629 182.5,325.5C 183.139,324.903 183.472,324.07 183.5,323C 182.992,321.107 181.992,319.607 180.5,318.5C 179.833,317.5 179.167,316.5 178.5,315.5C 182.545,316.687 186.545,318.187 190.5,320C 191.126,320.75 191.626,321.584 192,322.5C 194.734,321.551 197.234,320.217 199.5,318.5C 200.172,319.267 201.005,319.934 202,320.5C 205.292,319.635 208.792,319.468 212.5,320C 211.366,321.016 211.699,321.683 213.5,322C 211.068,323.087 211.402,323.587 214.5,323.5C 214.5,324.833 214.5,326.167 214.5,327.5C 216.911,327.863 218.411,326.863 219,324.5C 220.684,326.066 222.684,327.066 225,327.5C 227.175,325.477 229.675,324.143 232.5,323.5C 233.176,320.285 235.176,318.118 238.5,317C 236.068,315.913 236.402,315.413 239.5,315.5C 242.773,309.88 245.773,304.047 248.5,298C 247.978,297.439 247.645,296.772 247.5,296C 251.336,286.583 252.502,276.75 251,266.5C 247.534,252.974 244.868,239.308 243,225.5C 238.879,224.861 234.713,224.195 230.5,223.5C 230.137,222.817 229.804,222.15 229.5,221.5 Z"/></g>
<g><path style="opacity:1" fill="#bbebd4" d="M 195.5,325.5 C 198.976,324.357 202.642,324.19 206.5,325C 207.576,326.726 207.743,328.559 207,330.5C 202.587,331.632 198.087,331.799 193.5,331C 191.82,328.189 192.487,326.356 195.5,325.5 Z"/></g>
<g><path style="opacity:1" fill="#f9fefc" d="M 195.5,325.5 C 198.833,325.5 202.167,325.5 205.5,325.5C 205.5,327.167 205.5,328.833 205.5,330.5C 202.15,330.665 198.817,330.498 195.5,330C 194.272,328.51 194.272,327.01 195.5,325.5 Z"/></g>
<g><path style="opacity:1" fill="#d6f6e6" d="M 180.5,318.5 C 181.992,319.607 182.992,321.107 183.5,323C 183.472,324.07 183.139,324.903 182.5,325.5C 180.473,325.662 178.473,325.495 176.5,325C 170.009,320.543 164.509,315.043 160,308.5C 159.506,306.866 159.34,305.199 159.5,303.5C 162.556,304.616 165.556,306.116 168.5,308C 171.167,311.333 173.833,314.667 176.5,318C 177.793,318.49 179.127,318.657 180.5,318.5 Z"/></g>
<g><path style="opacity:1" fill="#6fcd9c" d="M 162.5,299.5 C 166.701,303.122 170.368,307.289 173.5,312C 175.101,312.273 176.601,312.773 178,313.5C 178.464,314.094 178.631,314.761 178.5,315.5C 179.167,316.5 179.833,317.5 180.5,318.5C 179.127,318.657 177.793,318.49 176.5,318C 173.833,314.667 171.167,311.333 168.5,308C 165.556,306.116 162.556,304.616 159.5,303.5C 159.34,305.199 159.506,306.866 160,308.5C 164.509,315.043 170.009,320.543 176.5,325C 178.473,325.495 180.473,325.662 182.5,325.5C 180.372,326.629 178.039,326.796 175.5,326C 169.524,321.57 163.857,316.736 158.5,311.5C 156.661,309.473 156.161,307.14 157,304.5C 158.634,302.503 160.468,300.836 162.5,299.5 Z"/></g>
<g><path style="opacity:1" fill="#506c66" d="M 125.5,330.5 C 126.583,330.539 127.583,330.873 128.5,331.5C 129.148,333.149 130.148,334.482 131.5,335.5C 132.251,334.624 132.751,333.624 133,332.5C 133.199,335.722 134.032,338.722 135.5,341.5C 131.507,338.504 128.174,334.837 125.5,330.5 Z"/></g>
<g><path style="opacity:1" fill="#5f7471" d="M 270.5,335.5 C 268.234,339.436 265.234,342.769 261.5,345.5C 260.677,340.661 262.677,338.327 267.5,338.5C 267.5,337.5 267.5,336.5 267.5,335.5C 268.5,335.5 269.5,335.5 270.5,335.5 Z"/></g>
<g><path style="opacity:1" fill="#0e4d3b" d="M 134.5,319.5 C 139.634,324.805 144.634,330.305 149.5,336C 152.051,338.1 154.717,339.933 157.5,341.5C 157.953,342.458 158.619,343.292 159.5,344C 163.205,344.279 166.205,345.779 168.5,348.5C 194.989,359.39 220.322,357.39 244.5,342.5C 241.923,346.246 238.589,349.079 234.5,351C 211.932,358.281 189.265,358.281 166.5,351C 161.25,346.696 155.583,342.863 149.5,339.5C 148.614,338.675 148.281,337.675 148.5,336.5C 145.737,336.256 143.571,334.923 142,332.5C 141.544,328.706 139.544,326.039 136,324.5C 135.392,322.846 134.892,321.179 134.5,319.5 Z"/></g>
<g><path style="opacity:1" fill="#49615d" d="M 145.5,350.5 C 147.086,351.413 148.586,351.413 150,350.5C 151.167,351.667 152.333,352.833 153.5,354C 157.118,353.665 159.452,355.165 160.5,358.5C 163.905,359.191 166.571,360.858 168.5,363.5C 159.733,360.954 152.066,356.621 145.5,350.5 Z"/></g>
<g><path style="opacity:1" fill="#637875" d="M 261.5,345.5 C 254.542,353.114 246.208,358.781 236.5,362.5C 236.281,361.325 236.614,360.325 237.5,359.5C 239.833,358.833 242.167,358.167 244.5,357.5C 245.782,354.358 248.115,353.025 251.5,353.5C 251.286,351.856 251.62,350.356 252.5,349C 256.306,347.94 259.306,346.773 261.5,345.5 Z"/></g>
<g><path style="opacity:0.541" fill="#a0b0ae" d="M 168.5,363.5 C 170.898,363.259 172.898,363.926 174.5,365.5C 172.102,365.741 170.102,365.074 168.5,363.5 Z"/></g>
<g><path style="opacity:0.039" fill="#c9d9d9" d="M 231.5,364.5 C 228.495,366.277 225.162,367.277 221.5,367.5C 224.505,365.723 227.838,364.723 231.5,364.5 Z"/></g>
<g><path style="opacity:0.567" fill="#a5b2b0" d="M 174.5,365.5 C 188.023,368.111 201.69,369.111 215.5,368.5C 206.343,369.658 197.009,369.824 187.5,369C 182.843,368.588 178.509,367.421 174.5,365.5 Z"/></g>
</svg>
